<mxfile host="Electron" modified="2023-06-06T08:51:33.433Z" agent="Mozilla/5.0 (Macintosh; Intel Mac OS X 10_15_7) AppleWebKit/537.36 (KHTML, like Gecko) draw.io/21.2.8 Chrome/112.0.5615.165 Electron/24.2.0 Safari/537.36" etag="ftZ0bEPH2QCskzh-KgJ8" version="21.2.8" type="device">
  <diagram name="페이지-1" id="PzmjUFRA6Ga3aEvpSxTa">
    <mxGraphModel dx="1114" dy="894" grid="1" gridSize="10" guides="1" tooltips="1" connect="1" arrows="1" fold="1" page="1" pageScale="1" pageWidth="827" pageHeight="1169" math="0" shadow="0">
      <root>
        <mxCell id="0" />
        <mxCell id="1" parent="0" />
        <mxCell id="tea1Q9wdEUoXonq_ex1i-20" style="edgeStyle=orthogonalEdgeStyle;rounded=0;orthogonalLoop=1;jettySize=auto;html=1;entryX=1;entryY=0.5;entryDx=0;entryDy=0;endArrow=block;endFill=1;" edge="1" parent="1" source="tea1Q9wdEUoXonq_ex1i-1" target="tea1Q9wdEUoXonq_ex1i-3">
          <mxGeometry relative="1" as="geometry" />
        </mxCell>
        <mxCell id="tea1Q9wdEUoXonq_ex1i-1" value="시작" style="ellipse;whiteSpace=wrap;html=1;aspect=fixed;fillColor=#d5e8d4;strokeColor=#82b366;" vertex="1" parent="1">
          <mxGeometry x="510" y="10" width="80" height="80" as="geometry" />
        </mxCell>
        <mxCell id="tea1Q9wdEUoXonq_ex1i-22" style="edgeStyle=orthogonalEdgeStyle;rounded=0;orthogonalLoop=1;jettySize=auto;html=1;entryX=0.5;entryY=0;entryDx=0;entryDy=0;endArrow=block;endFill=1;" edge="1" parent="1" source="tea1Q9wdEUoXonq_ex1i-2" target="tea1Q9wdEUoXonq_ex1i-4">
          <mxGeometry relative="1" as="geometry" />
        </mxCell>
        <mxCell id="tea1Q9wdEUoXonq_ex1i-2" value="Spring bean 정의 후 처리" style="rounded=1;whiteSpace=wrap;html=1;" vertex="1" parent="1">
          <mxGeometry x="150" y="110" width="160" height="60" as="geometry" />
        </mxCell>
        <mxCell id="tea1Q9wdEUoXonq_ex1i-21" style="edgeStyle=orthogonalEdgeStyle;rounded=0;orthogonalLoop=1;jettySize=auto;html=1;entryX=0.5;entryY=0;entryDx=0;entryDy=0;endArrow=block;endFill=1;" edge="1" parent="1" source="tea1Q9wdEUoXonq_ex1i-3" target="tea1Q9wdEUoXonq_ex1i-2">
          <mxGeometry relative="1" as="geometry" />
        </mxCell>
        <mxCell id="tea1Q9wdEUoXonq_ex1i-3" value="Spring bean 정의 로딩" style="rounded=1;whiteSpace=wrap;html=1;" vertex="1" parent="1">
          <mxGeometry x="150" y="20" width="160" height="60" as="geometry" />
        </mxCell>
        <mxCell id="tea1Q9wdEUoXonq_ex1i-23" style="edgeStyle=orthogonalEdgeStyle;rounded=0;orthogonalLoop=1;jettySize=auto;html=1;entryX=0.5;entryY=0;entryDx=0;entryDy=0;endArrow=block;endFill=1;" edge="1" parent="1" source="tea1Q9wdEUoXonq_ex1i-4" target="tea1Q9wdEUoXonq_ex1i-5">
          <mxGeometry relative="1" as="geometry" />
        </mxCell>
        <mxCell id="tea1Q9wdEUoXonq_ex1i-4" value="Spring bean 초기화" style="rounded=1;whiteSpace=wrap;html=1;" vertex="1" parent="1">
          <mxGeometry x="150" y="200" width="160" height="60" as="geometry" />
        </mxCell>
        <mxCell id="tea1Q9wdEUoXonq_ex1i-24" style="edgeStyle=orthogonalEdgeStyle;rounded=0;orthogonalLoop=1;jettySize=auto;html=1;entryX=0.5;entryY=0;entryDx=0;entryDy=0;endArrow=block;endFill=1;" edge="1" parent="1" source="tea1Q9wdEUoXonq_ex1i-5" target="tea1Q9wdEUoXonq_ex1i-6">
          <mxGeometry relative="1" as="geometry" />
        </mxCell>
        <mxCell id="tea1Q9wdEUoXonq_ex1i-5" value="의존성 주입" style="rounded=1;whiteSpace=wrap;html=1;" vertex="1" parent="1">
          <mxGeometry x="150" y="290" width="160" height="60" as="geometry" />
        </mxCell>
        <mxCell id="tea1Q9wdEUoXonq_ex1i-25" style="edgeStyle=orthogonalEdgeStyle;rounded=0;orthogonalLoop=1;jettySize=auto;html=1;entryX=0.5;entryY=0;entryDx=0;entryDy=0;endArrow=block;endFill=1;" edge="1" parent="1" source="tea1Q9wdEUoXonq_ex1i-6" target="tea1Q9wdEUoXonq_ex1i-8">
          <mxGeometry relative="1" as="geometry" />
        </mxCell>
        <mxCell id="tea1Q9wdEUoXonq_ex1i-32" style="edgeStyle=orthogonalEdgeStyle;rounded=1;orthogonalLoop=1;jettySize=auto;html=1;entryX=0.5;entryY=0;entryDx=0;entryDy=0;" edge="1" parent="1" source="tea1Q9wdEUoXonq_ex1i-6" target="tea1Q9wdEUoXonq_ex1i-9">
          <mxGeometry relative="1" as="geometry">
            <Array as="points">
              <mxPoint x="380" y="400" />
              <mxPoint x="380" y="150" />
              <mxPoint x="560" y="150" />
            </Array>
          </mxGeometry>
        </mxCell>
        <mxCell id="tea1Q9wdEUoXonq_ex1i-6" value="초기화 후 Spring bean 에 정의된 callback 실행" style="rounded=1;whiteSpace=wrap;html=1;fillColor=#d5e8d4;strokeColor=#82b366;" vertex="1" parent="1">
          <mxGeometry x="150" y="380" width="160" height="60" as="geometry" />
        </mxCell>
        <mxCell id="tea1Q9wdEUoXonq_ex1i-26" style="edgeStyle=orthogonalEdgeStyle;rounded=1;orthogonalLoop=1;jettySize=auto;html=1;entryX=0;entryY=0.5;entryDx=0;entryDy=0;endArrow=block;endFill=1;" edge="1" parent="1" source="tea1Q9wdEUoXonq_ex1i-8" target="tea1Q9wdEUoXonq_ex1i-14">
          <mxGeometry relative="1" as="geometry">
            <Array as="points">
              <mxPoint x="410" y="500" />
              <mxPoint x="410" y="585" />
            </Array>
          </mxGeometry>
        </mxCell>
        <mxCell id="tea1Q9wdEUoXonq_ex1i-8" value="사용 가능한 Spring bean 상태" style="rounded=1;whiteSpace=wrap;html=1;" vertex="1" parent="1">
          <mxGeometry x="150" y="470" width="160" height="60" as="geometry" />
        </mxCell>
        <mxCell id="tea1Q9wdEUoXonq_ex1i-33" style="edgeStyle=orthogonalEdgeStyle;rounded=0;orthogonalLoop=1;jettySize=auto;html=1;entryX=0.5;entryY=0;entryDx=0;entryDy=0;endArrow=block;endFill=1;" edge="1" parent="1" source="tea1Q9wdEUoXonq_ex1i-9" target="tea1Q9wdEUoXonq_ex1i-10">
          <mxGeometry relative="1" as="geometry" />
        </mxCell>
        <mxCell id="tea1Q9wdEUoXonq_ex1i-9" value="BeanPostProcessor (interface)&lt;br&gt;postProcessBeforeInitialization()" style="rounded=1;whiteSpace=wrap;html=1;fillColor=#fff2cc;strokeColor=#d6b656;" vertex="1" parent="1">
          <mxGeometry x="450" y="180" width="220" height="40" as="geometry" />
        </mxCell>
        <mxCell id="tea1Q9wdEUoXonq_ex1i-35" style="edgeStyle=orthogonalEdgeStyle;rounded=0;orthogonalLoop=1;jettySize=auto;html=1;entryX=0.5;entryY=0;entryDx=0;entryDy=0;endArrow=block;endFill=1;" edge="1" parent="1" source="tea1Q9wdEUoXonq_ex1i-10" target="tea1Q9wdEUoXonq_ex1i-11">
          <mxGeometry relative="1" as="geometry" />
        </mxCell>
        <mxCell id="tea1Q9wdEUoXonq_ex1i-10" value="@PostConstruct (Annotation)" style="rounded=1;whiteSpace=wrap;html=1;fillColor=#fff2cc;strokeColor=#d6b656;" vertex="1" parent="1">
          <mxGeometry x="450" y="250" width="220" height="40" as="geometry" />
        </mxCell>
        <mxCell id="tea1Q9wdEUoXonq_ex1i-36" style="edgeStyle=orthogonalEdgeStyle;rounded=0;orthogonalLoop=1;jettySize=auto;html=1;entryX=0.5;entryY=0;entryDx=0;entryDy=0;endArrow=block;endFill=1;" edge="1" parent="1" source="tea1Q9wdEUoXonq_ex1i-11" target="tea1Q9wdEUoXonq_ex1i-12">
          <mxGeometry relative="1" as="geometry" />
        </mxCell>
        <mxCell id="tea1Q9wdEUoXonq_ex1i-11" value="InitializingBean (interface)&lt;br&gt;afterPropertiesSet()" style="rounded=1;whiteSpace=wrap;html=1;fillColor=#fff2cc;strokeColor=#d6b656;" vertex="1" parent="1">
          <mxGeometry x="450" y="320" width="220" height="40" as="geometry" />
        </mxCell>
        <mxCell id="tea1Q9wdEUoXonq_ex1i-37" style="edgeStyle=orthogonalEdgeStyle;rounded=0;orthogonalLoop=1;jettySize=auto;html=1;entryX=0.5;entryY=0;entryDx=0;entryDy=0;endArrow=block;endFill=1;" edge="1" parent="1" source="tea1Q9wdEUoXonq_ex1i-12" target="tea1Q9wdEUoXonq_ex1i-13">
          <mxGeometry relative="1" as="geometry" />
        </mxCell>
        <mxCell id="tea1Q9wdEUoXonq_ex1i-12" value="@Bean 의 initMethod 속성에&lt;br&gt;정의된 함수" style="rounded=1;whiteSpace=wrap;html=1;fillColor=#fff2cc;strokeColor=#d6b656;" vertex="1" parent="1">
          <mxGeometry x="450" y="390" width="220" height="40" as="geometry" />
        </mxCell>
        <mxCell id="tea1Q9wdEUoXonq_ex1i-39" style="edgeStyle=orthogonalEdgeStyle;rounded=1;orthogonalLoop=1;jettySize=auto;html=1;entryX=1;entryY=0.75;entryDx=0;entryDy=0;endArrow=block;endFill=1;" edge="1" parent="1" source="tea1Q9wdEUoXonq_ex1i-13" target="tea1Q9wdEUoXonq_ex1i-6">
          <mxGeometry relative="1" as="geometry" />
        </mxCell>
        <mxCell id="tea1Q9wdEUoXonq_ex1i-13" value="BeanPostProcessor (interface)&lt;br&gt;postProcessAfterInitialization()" style="rounded=1;whiteSpace=wrap;html=1;fillColor=#fff2cc;strokeColor=#d6b656;" vertex="1" parent="1">
          <mxGeometry x="450" y="460" width="220" height="40" as="geometry" />
        </mxCell>
        <mxCell id="tea1Q9wdEUoXonq_ex1i-28" style="edgeStyle=orthogonalEdgeStyle;rounded=0;orthogonalLoop=1;jettySize=auto;html=1;entryX=0.5;entryY=0;entryDx=0;entryDy=0;endArrow=block;endFill=1;" edge="1" parent="1" source="tea1Q9wdEUoXonq_ex1i-14" target="tea1Q9wdEUoXonq_ex1i-15">
          <mxGeometry relative="1" as="geometry" />
        </mxCell>
        <mxCell id="tea1Q9wdEUoXonq_ex1i-14" value="Spring bean Container 종료" style="rounded=1;whiteSpace=wrap;html=1;" vertex="1" parent="1">
          <mxGeometry x="480" y="555" width="160" height="60" as="geometry" />
        </mxCell>
        <mxCell id="tea1Q9wdEUoXonq_ex1i-29" style="edgeStyle=orthogonalEdgeStyle;rounded=0;orthogonalLoop=1;jettySize=auto;html=1;entryX=0.5;entryY=0;entryDx=0;entryDy=0;endArrow=block;endFill=1;" edge="1" parent="1" source="tea1Q9wdEUoXonq_ex1i-15" target="tea1Q9wdEUoXonq_ex1i-19">
          <mxGeometry relative="1" as="geometry" />
        </mxCell>
        <mxCell id="tea1Q9wdEUoXonq_ex1i-40" style="edgeStyle=orthogonalEdgeStyle;rounded=1;orthogonalLoop=1;jettySize=auto;html=1;entryX=0.5;entryY=0;entryDx=0;entryDy=0;endArrow=block;endFill=1;" edge="1" parent="1" source="tea1Q9wdEUoXonq_ex1i-15" target="tea1Q9wdEUoXonq_ex1i-16">
          <mxGeometry relative="1" as="geometry">
            <Array as="points">
              <mxPoint x="380" y="670" />
              <mxPoint x="380" y="580" />
              <mxPoint x="240" y="580" />
            </Array>
          </mxGeometry>
        </mxCell>
        <mxCell id="tea1Q9wdEUoXonq_ex1i-15" value="파기 전 Spring bean 에 정의된 callback 실행" style="rounded=1;whiteSpace=wrap;html=1;fillColor=#d5e8d4;strokeColor=#82b366;" vertex="1" parent="1">
          <mxGeometry x="480" y="650" width="160" height="60" as="geometry" />
        </mxCell>
        <mxCell id="tea1Q9wdEUoXonq_ex1i-41" style="edgeStyle=orthogonalEdgeStyle;rounded=0;orthogonalLoop=1;jettySize=auto;html=1;entryX=0.5;entryY=0;entryDx=0;entryDy=0;endArrow=block;endFill=1;" edge="1" parent="1" source="tea1Q9wdEUoXonq_ex1i-16" target="tea1Q9wdEUoXonq_ex1i-17">
          <mxGeometry relative="1" as="geometry" />
        </mxCell>
        <mxCell id="tea1Q9wdEUoXonq_ex1i-16" value="@PreDestory (Annotation)" style="rounded=1;whiteSpace=wrap;html=1;fillColor=#fff2cc;strokeColor=#d6b656;" vertex="1" parent="1">
          <mxGeometry x="130" y="600" width="220" height="40" as="geometry" />
        </mxCell>
        <mxCell id="tea1Q9wdEUoXonq_ex1i-42" style="edgeStyle=orthogonalEdgeStyle;rounded=0;orthogonalLoop=1;jettySize=auto;html=1;entryX=0.5;entryY=0;entryDx=0;entryDy=0;endArrow=block;endFill=1;" edge="1" parent="1" source="tea1Q9wdEUoXonq_ex1i-17" target="tea1Q9wdEUoXonq_ex1i-18">
          <mxGeometry relative="1" as="geometry" />
        </mxCell>
        <mxCell id="tea1Q9wdEUoXonq_ex1i-17" value="DisposableBean (interface)&lt;br&gt;destroy()" style="rounded=1;whiteSpace=wrap;html=1;fillColor=#fff2cc;strokeColor=#d6b656;" vertex="1" parent="1">
          <mxGeometry x="130" y="670" width="220" height="40" as="geometry" />
        </mxCell>
        <mxCell id="tea1Q9wdEUoXonq_ex1i-44" style="edgeStyle=orthogonalEdgeStyle;rounded=1;orthogonalLoop=1;jettySize=auto;html=1;entryX=0;entryY=0.75;entryDx=0;entryDy=0;endArrow=block;endFill=1;" edge="1" parent="1" source="tea1Q9wdEUoXonq_ex1i-18" target="tea1Q9wdEUoXonq_ex1i-15">
          <mxGeometry relative="1" as="geometry">
            <Array as="points">
              <mxPoint x="240" y="800" />
              <mxPoint x="415" y="800" />
              <mxPoint x="415" y="695" />
            </Array>
          </mxGeometry>
        </mxCell>
        <mxCell id="tea1Q9wdEUoXonq_ex1i-18" value="@Bean 의 destroyMethod 속성에&lt;br&gt;정의된 함수" style="rounded=1;whiteSpace=wrap;html=1;fillColor=#fff2cc;strokeColor=#d6b656;" vertex="1" parent="1">
          <mxGeometry x="130" y="740" width="220" height="40" as="geometry" />
        </mxCell>
        <mxCell id="tea1Q9wdEUoXonq_ex1i-19" value="종료" style="ellipse;whiteSpace=wrap;html=1;aspect=fixed;fillColor=#d5e8d4;strokeColor=#82b366;" vertex="1" parent="1">
          <mxGeometry x="520" y="820" width="80" height="80" as="geometry" />
        </mxCell>
      </root>
    </mxGraphModel>
  </diagram>
</mxfile>
